<svg width="38" height="37" viewBox="0 0 38 37" fill="none" xmlns="http://www.w3.org/2000/svg">
<path d="M17.2322 35.7678C18.2085 36.7441 19.7915 36.7441 20.7678 35.7678L36.6777 19.8579C37.654 18.8816 37.654 17.2986 36.6777 16.3223C35.7014 15.346 34.1184 15.346 33.1421 16.3223L19 30.4645L4.85786 16.3223C3.88155 15.346 2.29864 15.346 1.32233 16.3223C0.346017 17.2986 0.346017 18.8816 1.32233 19.8579L17.2322 35.7678ZM16.5 32L16.5 34L21.5 34L21.5 32L16.5 32Z" fill="white"/>
<path d="M17.2322 20.7678C18.2085 21.7441 19.7915 21.7441 20.7678 20.7678L36.6777 4.85786C37.654 3.88155 37.654 2.29864 36.6777 1.32233C35.7014 0.346019 34.1184 0.346019 33.1421 1.32233L19 15.4645L4.85786 1.32233C3.88155 0.34602 2.29864 0.34602 1.32233 1.32233C0.346017 2.29864 0.346017 3.88155 1.32233 4.85787L17.2322 20.7678ZM16.5 17L16.5 19L21.5 19L21.5 17L16.5 17Z" fill="white"/>
</svg>
