<svg width="50" height="50" viewBox="0 0 50 50" fill="none" xmlns="http://www.w3.org/2000/svg">
<circle cx="25" cy="25" r="25" fill="#242424"/>
<path d="M6 32V28.75H7.625V25.5H9.25V19H17.375V28.75H19V32H15.75V30.375H9.25V32H6ZM10.875 28.75H14.125V20.625H10.875V28.75ZM19 30.375V22.25H20.625V20.625H22.25V19H27.125V20.625H28.75V22.25H30.375V30.375H27.125V27.125H22.25V30.375H19ZM22.25 25.5H27.125V22.25H25.5V20.625H23.875V22.25H22.25V25.5ZM32 30.375V19H35.25V23.875H40.125V19H43.375V30.375H40.125V25.5H35.25V30.375H32Z" fill="white"/>
</svg>
